<!-- by TradingView --><svg width="56" height="56" viewBox="0 0 56 56" xmlns="http://www.w3.org/2000/svg"><path fill="#0091BA" d="M0 0h56v56H0z"/><path d="M13.06 36h3.3V20h-3.3L9 23.04v2.88l4-2.68h.06V36ZM26.02 36c3.97 0 6.38-3.08 6.38-8v-.02c0-4.91-2.4-7.98-6.38-7.98s-6.39 3.07-6.39 7.98v.03c0 4.91 2.41 7.99 6.39 7.99Zm0-2.6c-1.96 0-3.08-2-3.08-5.4v-.02c0-3.4 1.12-5.39 3.08-5.39 1.95 0 3.07 2 3.07 5.4V28c0 3.4-1.12 5.4-3.07 5.4ZM40.61 36C44.6 36 47 32.92 47 28v-.02c0-4.91-2.41-7.98-6.39-7.98-3.97 0-6.38 3.07-6.38 7.98v.03c0 4.91 2.4 7.99 6.38 7.99Zm0-2.6c-1.95 0-3.07-2-3.07-5.4v-.02c0-3.4 1.12-5.39 3.07-5.39 1.96 0 3.08 2 3.08 5.4V28c0 3.4-1.12 5.4-3.08 5.4Z" fill="#fff"/></svg>